<?xml version="1.0" encoding="UTF-8"?>
<svg viewBox="0 0 825 825">
  <path fill="#F7F100" stroke="#000000" d="M412.4,820.3L4.8,412.7L412.5,5.1l407.8,407.8L412.4,820.3z"></path>
  <path fill="none" stroke="#000000" stroke-width="15" d="M412.5,53.5L53.3,412.6l359.1,359.1l359.4-359.4L412.5,53.5z"></path>
  <path stroke="#000000" d="m291.3 488.4c-14.2-23.3 7.9-118-27.5-155 21.9-2.4 34.6 13.2 41.5 24.1-5.4-48.9-8.1-54.9 10.3-90.5 17.7 35.1 24 37 31.9 35.6 3-7.3 1.2-58.1-13.3-78.3 20.9-1.4 39.8 14 45.2 15.7 2.9-22.6-24.3-107 32.9-136.4-17.7 63.8 33.8 143 41.2 145.5 7.8-17.6 3.9-33.1 4.2-44.1 19.1 13.7 35.1 71.9 36.3 79 11.5-19.6 28.5-23.6 35.8-24.8-6.2 29.7-1.5 73.8-12.5 99.6 10.8-7.6 21.6-16.9 38.7-15.5-43.4 25-6.2 75.6-23.5 151.7l-241.2-6.6z"></path>
  <path fill="#F7F100" stroke="#000000" stroke-width="19.438" stroke-linecap="square" d="m521.8 463.7c0 60.4-48.9 109.4-109.4 109.4s-109.4-48.9-109.4-109.4 49-109.3 109.5-109.3 109.3 48.9 109.3 109.3z"></path>
  <path fill="#F7F100" stroke="#000000" d="m322 346.1c6.8 0.8 9.6 11.6 9.6 14.9 0 3.4-10.1 20.6-16.2 20.6-3.5-0.1 4.6-35.7 6.6-35.5z"></path>
  <path fill="#F7F100" stroke="#000000" d="m366.6 309.3c1.5-2.5 13.2 22.3 12.5 27.7-1.2 9.1-15.2 11.1-17.7 10.1-3.7-1.5-3.4-8.1-2.9-13.2 0.6-5.7 7.4-0.6 8.1-24.6z"></path>
  <path fill="#F7F100" stroke="#000000" d="m414.7 274.2c-0.2 8.4-3.2 30 2.4 39 5.1 7.9 8.8 11.6 9.6 20.9 0.5 6.4-2.7 5.6-11.1 4.1-6.4-1.2-18.2 8.4-17.2-19.2 0.2-8.4 7.3-40.8 16.3-44.8z"></path>
  <path fill="#F7F100" stroke="#000000" d="m461.2 313.8c-5.4 2.9-13.2 7.8-14.3 19.6-0.5 4.9 2.2 10.6 7.4 12.7 6.4 2.5 7.1 1.9 8.6-4.1 1.4-5.2-1.7-11.3-1.5-15.9 0-5.7 1.9-5.8-0.2-12.3z"></path>
  <path fill="#F7F100" stroke="#000000" d="m491.5 330.9c-4.6 1.5-9.5 11.6-9.3 19.9 0.2 8.4 3.4 10.6 7.4 14.7 13.3 13.8 9.8 5.9 10.8-0.5 0.5-4.1-1.9-11.1-4.9-16.9-2.7-4.7-4-9.8-4-17.2z"></path>
  <path fill="#F7F100" stroke="#000000" d="m437.1 268.4c3-16.4 9.6-14.3 12.5 4.6 0.8 4.9-11.3 29.7-12.5 10-0.2-3.3-0.8-10.2 0-14.6z"></path>
  <rect stroke="#000000" stroke-width="2" stroke-linecap="square" x="263.1" y="576.1" width="294" height="14.9"></rect>
  <path d="m488.6 464.1c0-10.1-12.8-19.9-32.4-25.8 4.6-19.9 2.5-35.8-6.4-40.8-2-1.2-4.4-1.7-7.1-1.7v6.9c1.5 0 2.5 0.3 3.5 0.8 4.2 2.4 6.1 11.8 4.7 23.8-0.3 2.9-0.8 6.1-1.5 9.3-6.1-1.5-12.8-2.7-19.9-3.4-4.2-5.7-8.6-11.1-13-15.7 10.3-9.5 19.7-14.7 26.3-14.7v-6.9c-8.6 0-19.9 6.1-31.4 16.9-11.4-10.7-22.7-16.8-31.3-16.8v6.9c6.4 0 16.2 5.2 26.3 14.7-4.4 4.6-8.8 9.8-13 15.7-7.1 0.7-13.8 1.9-19.9 3.4-0.7-3.2-1.2-6.2-1.7-9.1-1.5-12 0.3-21.3 4.6-23.8 1-0.5 2.2-0.8 3.5-0.8v-7c-2.7 0-5.1 0.5-7.1 1.7-8.8 5.1-10.8 20.9-6.2 40.8-19.6 6.1-32.2 15.7-32.2 25.8s12.8 19.9 32.4 25.8c-4.6 19.9-2.5 35.8 6.4 40.8 2 1.2 4.4 1.7 7.1 1.7 8.6 0 19.9-6.1 31.4-16.9 11.5 10.6 22.8 16.7 31.4 16.7 2.7 0 5.1-0.5 7.1-1.7 8.8-5.1 10.8-20.9 6.2-40.8 19.5-6.1 32.2-15.7 32.2-25.8zm-40.9-21c-1.2 4.1-2.5 8.3-4.2 12.3-1.4-2.5-2.7-5.1-4.1-7.6-1.5-2.5-3-4.9-4.6-7.3 4.5 0.8 8.9 1.6 12.9 2.6zm-14.3 33.5c-2.4 4.2-4.9 8.3-7.6 12-4.7 0.3-9.5 0.7-14.2 0.7s-9.5-0.2-14.2-0.7c-2.5-3.7-5.1-7.8-7.6-12-2.4-4.1-4.6-8.3-6.6-12.5 2-4.2 4.2-8.4 6.4-12.5 2.4-4.2 4.9-8.3 7.6-12 4.7-0.3 9.5-0.7 14.2-0.7s9.5 0.2 14.2 0.7c2.5 3.7 5.1 7.8 7.6 12 2.4 4.1 4.6 8.3 6.6 12.5-1.8 4-4 8.2-6.4 12.5zm10.1-4.3c1.7 4.2 3.2 8.4 4.4 12.5-4.1 1-8.4 1.9-13 2.5 1.5-2.4 3-4.9 4.6-7.4 1.3-2.5 2.7-5 4-7.6zm-31.9 33.6c-2.9-3-5.9-6.4-8.8-10 2.9 0.2 5.7 0.2 8.6 0.2s5.9 0 8.8-0.2c-2.7 3.6-5.7 7-8.6 10zm-23.3-18.5c-4.4-0.7-8.8-1.5-12.8-2.5 1.2-4.1 2.5-8.3 4.2-12.3 1.4 2.5 2.7 5.1 4.1 7.6l4.5 7.2zm23.2-65.4c2.9 3 5.9 6.4 8.8 10-2.9-0.2-5.7-0.2-8.6-0.2s-5.9 0-8.8 0.2c2.8-3.5 5.7-6.9 8.6-10zm-23.2 18.6c-1.5 2.4-3 4.9-4.6 7.4-1.5 2.5-2.9 5.1-4.1 7.6-1.7-4.2-3.2-8.4-4.4-12.5 4.3-1 8.6-1.8 13.1-2.5zm-28.3 39.3c-11.1-4.7-18.2-11-18.2-15.9s7.3-11.1 18.2-15.9c2.7-1.2 5.6-2.2 8.6-3.2 1.9 6.1 4.2 12.5 7.1 19.1-2.9 6.6-5.2 12.8-6.9 19.1-3.3-1-6.1-2-8.8-3.2zm16.8 44.8c-4.2-2.4-6.1-11.8-4.7-23.8 0.3-2.9 0.8-6.1 1.5-9.3 6.1 1.5 12.8 2.7 19.9 3.4 4.2 5.7 8.6 11.1 13 15.7-10.3 9.5-19.7 14.7-26.3 14.7-1.3 0.1-2.5-0.2-3.4-0.7zm74.5-23.8c1.5 12-0.3 21.3-4.6 23.8-1 0.5-2.2 0.8-3.5 0.8-6.4 0-16.2-5.2-26.3-14.7 4.4-4.6 8.8-9.8 13-15.7 7.1-0.7 13.8-1.9 19.9-3.4 0.5 3.1 1.1 6.1 1.5 9.2zm12-21c-2.7 1.2-5.6 2.2-8.6 3.2-1.9-6.1-4.2-12.5-7.1-19.1 2.9-6.6 5.2-12.8 6.9-19.1 3 1 6.1 2 8.8 3.2 11.1 4.7 18.2 11 18.2 15.9 0.2 5-7.1 11.2-18.2 15.9z"></path>
  <path d="m380.2 395.5z"></path>
  <circle cx="411.6" cy="464.1" r="14.3"></circle>
  <path d="m442.8 395.5z"></path>
</svg>
